<svg version="1.1" id="Ebene_1" xmlns="http://www.w3.org/2000/svg" xmlns:xlink="http://www.w3.org/1999/xlink" x="0px" y="0px" viewBox="0 0 68 51" style="enable-background:new 0 0 68 51;" xml:space="preserve"><rect width="68" height="51" style="fill:#ffffff"></rect><path style="fill:#000000" d="M19.5,13.4v16.2c0,2.5-2,4.6-4.6,4.6c-2.5,0-4.6-2-4.6-4.6v-5.9c0-2.5,2-4.6,4.6-4.6c0.8,0,1.6,0.3,2.2,0.8v-6.6c0-0.7,0.5-1.2,1.2-1.2C19,12.2,19.5,12.7,19.5,13.4z M17.1,29.8v-6.4c0-1.2-1-2.2-2.2-2.2c-1.2,0-2.2,1-2.2,2.2l0,6.4c0,1.2,1,2.2,2.2,2.2C16.2,32,17.1,31,17.1,29.8z M29.1,29.8c0,1.2-1,2.2-2.2,2.2c-1.2,0-2.2-1-2.2-2.2v-9.5c0-0.7-0.5-1.2-1.2-1.2c-0.7,0-1.2,0.5-1.2,1.2v9.2c0,2.5,2,4.6,4.6,4.6c2.5,0,4.6-2,4.6-4.6v-9.2c0-0.7-0.5-1.2-1.2-1.2c-0.7,0-1.2,0.5-1.2,1.2V29.8zM39.1,21.6c0.6,0,1.1-0.5,1.1-1.1c0-0.6-0.5-1.1-1.1-1.1H38c-2,0-3.6,1.6-3.6,3.6v9.8c0,0.7,0.5,1.2,1.2,1.2c0.7,0,1.2-0.5,1.2-1.2V23c0-0.8,0.6-1.4,1.4-1.4H39.1z M55.5,19.4v-6c0-0.7-0.5-1.2-1.2-1.2c-0.7,0-1.2,0.5-1.2,1.2v6h-1.8c-0.6,0-1.1,0.5-1.1,1.1c0,0.6,0.5,1.1,1.1,1.1h1.8v8.6c0,2,1.6,3.6,3.6,3.6h1.1c0.6,0,1.1-0.5,1.1-1.1c0-0.6-0.5-1.1-1.1-1.1H57c-0.8,0-1.4-0.6-1.4-1.4v-8.6h2.3c0.6,0,1.1-0.5,1.1-1.1c0-0.6-0.5-1.1-1.1-1.1H55.5z M42.2,31.6c-0.6,0-1.1,0.5-1.1,1.1c0,0.6,0.5,1.1,1.1,1.1h3.6c2.1,0,3.7-1.7,3.7-3.7v-1.4c0-1.9-1.5-3.4-3.4-3.4h-1.4c-0.7,0-1.2-0.5-1.2-1.2v-1c0-0.9,0.7-1.6,1.6-1.6H48c0.6,0,1.1-0.5,1.1-1.1c0-0.6-0.5-1.1-1.1-1.1h-3.1c-2.1,0-3.7,1.7-3.7,3.7v1c0,1.9,1.5,3.4,3.4,3.4h1.4c0.7,0,1.2,0.5,1.2,1.2v1.4c0,0.9-0.7,1.6-1.6,1.6H42.2z"></path></svg>