<?xml version="1.0" encoding="UTF-8" standalone="no"?>
<!-- Created with Inkscape (http://www.inkscape.org/) -->

<svg
   xmlns:dc="http://purl.org/dc/elements/1.1/"
   xmlns:cc="http://creativecommons.org/ns#"
   xmlns:rdf="http://www.w3.org/1999/02/22-rdf-syntax-ns#"
   xmlns:svg="http://www.w3.org/2000/svg"
   xmlns="http://www.w3.org/2000/svg"
   xmlns:sodipodi="http://sodipodi.sourceforge.net/DTD/sodipodi-0.dtd"
   xmlns:inkscape="http://www.inkscape.org/namespaces/inkscape"
   width="46.566666mm"
   height="6.0199885mm"
   viewBox="0 0 46.566666 6.0199885"
   version="1.1"
   id="svg8"
   inkscape:version="0.92.4 (f8dce91, 2019-08-02)"
   sodipodi:docname="ilford-white.svg">
  <defs
     id="defs2" />
  <sodipodi:namedview
     id="base"
     pagecolor="#ffffff"
     bordercolor="#666666"
     borderopacity="1.0"
     inkscape:pageopacity="0.0"
     inkscape:pageshadow="2"
     inkscape:zoom="0.50449219"
     inkscape:cx="-431.43884"
     inkscape:cy="-122.9716"
     inkscape:document-units="mm"
     inkscape:current-layer="layer1"
     showgrid="false"
     fit-margin-top="0"
     fit-margin-left="0"
     fit-margin-right="0"
     fit-margin-bottom="0"
     inkscape:window-width="1920"
     inkscape:window-height="951"
     inkscape:window-x="1920"
     inkscape:window-y="27"
     inkscape:window-maximized="1" />
  <metadata
     id="metadata5">
    <rdf:RDF>
      <cc:Work
         rdf:about="">
        <dc:format>image/svg+xml</dc:format>
        <dc:type
           rdf:resource="http://purl.org/dc/dcmitype/StillImage" />
        <dc:title></dc:title>
      </cc:Work>
    </rdf:RDF>
  </metadata>
  <g
     inkscape:label="Layer 1"
     inkscape:groupmode="layer"
     id="layer1"
     transform="translate(-81.447199,-92.371082)">
    <g
       id="g840"
       transform="matrix(0.26458333,0,0,0.26458333,21.22752,84.586077)">
      <g
         data-name="Group 222"
         id="Group_222">
        <path
           d="m 344.62784,36.801544 q -1.22547,-0.844862 -3.95106,-0.84765 h -2.62102 v 15.949205 h 1.77059 v -6.98196 h 1.29099 q 2.51785,0 3.78654,-1.056774 a 4.2273759,4.2273759 0 0 0 1.52242,-3.426848 q -0.004,-2.388199 -1.79846,-3.635973 z m -3.61646,6.46612 h -1.18503 v -5.657506 h 0.65525 c 1.32724,0 2.28085,0.142204 2.85803,0.421036 q 1.3133,0.610643 1.3133,2.364498 0,2.873366 -3.64155,2.871972 z"
           data-name="Path 426"
           id="Path_426"
           inkscape:connector-curvature="0"
           style="fill:#ffffff;stroke-width:0.27883226" />
        <path
           d="m 357.68555,51.905887 v -7.829609 h -8.17815 v 7.829609 h -1.77058 V 35.956682 h 1.77058 v 6.463332 h 8.17815 v -6.463332 h 1.77059 v 15.949205 z"
           data-name="Path 427"
           id="Path_427"
           inkscape:connector-curvature="0"
           style="fill:#ffffff;stroke-width:0.27883226" />
        <path
           d="m 375.08468,38.089749 a 8.3203546,8.3203546 0 0 0 -11.73883,0 7.9408639,7.9408639 0 0 0 -2.44257,5.852689 7.8697616,7.8697616 0 0 0 2.44257,5.830383 8.3683137,8.3683137 0 0 0 11.73883,0 7.8694828,7.8694828 0 0 0 2.44257,-5.830383 7.9467193,7.9467193 0 0 0 -2.44257,-5.852689 z m -1.24359,10.484093 a 6.4703025,6.4703025 0 0 1 -9.25165,0 6.3969696,6.3969696 0 0 1 -1.91558,-4.65371 6.4178821,6.4178821 0 0 1 1.90442,-4.664864 6.5232807,6.5232807 0 0 1 9.27397,0 6.4178821,6.4178821 0 0 1 1.90442,4.664864 6.3852587,6.3852587 0 0 1 -1.91558,4.65371 z"
           data-name="Path 428"
           id="Path_428"
           inkscape:connector-curvature="0"
           style="fill:#ffffff;stroke-width:0.27883226" />
        <path
           d="m 383.11226,37.610158 v 14.295729 h -1.77058 V 37.610158 h -3.84789 v -1.653476 h 9.52213 v 1.653476 z"
           data-name="Path 429"
           id="Path_429"
           inkscape:connector-curvature="0"
           style="fill:#ffffff;stroke-width:0.27883226" />
        <path
           d="m 401.15829,38.089749 a 8.3203546,8.3203546 0 0 0 -11.73884,0 7.9408639,7.9408639 0 0 0 -2.44257,5.852689 7.8694828,7.8694828 0 0 0 2.44257,5.830383 8.3683137,8.3683137 0 0 0 11.73884,0 7.8694828,7.8694828 0 0 0 2.44257,-5.830383 7.9467193,7.9467193 0 0 0 -2.44257,-5.852689 z m -1.24359,10.484093 a 6.4705814,6.4705814 0 0 1 -9.25166,0 6.3969696,6.3969696 0 0 1 -1.91558,-4.65371 6.4178821,6.4178821 0 0 1 1.90443,-4.664864 6.5232807,6.5232807 0 0 1 9.27396,0 6.4067288,6.4067288 0 0 1 1.90442,4.664864 6.3969696,6.3969696 0 0 1 -1.91557,4.65371 z"
           data-name="Path 430"
           id="Path_430"
           inkscape:connector-curvature="0"
           style="fill:#ffffff;stroke-width:0.27883226" />
      </g>
      <g
         data-name="Group 223"
         id="Group_223">
        <path
           d="M 227.60194,51.825026 V 29.774971 h 8.01921 v 22.050055 z m 9.44405,0 V 29.774971 h 8.01921 v 14.964927 h 6.71149 v 7.085128 z m 23.53065,-15.737292 v 2.292001 h 5.875 v 5.727214 h -5.875 v 7.718077 h -8.06662 V 29.774971 h 14.76138 v 6.312763 z m 27.71314,13.074444 q -3.42127,3.011388 -8.62707,3.011388 -5.2058,0 -8.62707,-3.011388 -3.56766,-3.128498 -3.56627,-8.306413 0,-5.0859 3.59694,-8.303625 3.45055,-3.128497 8.5964,-3.128497 5.14585,0 8.5964,3.128497 3.59693,3.216331 3.59693,8.303625 0.004,5.177915 -3.56626,8.306413 z M 282.649,37.914085 a 4.2072999,4.2072999 0 0 0 -5.97258,0 4.3456007,4.3456007 0 0 0 -1.14043,3.056001 4.1799744,4.1799744 0 0 0 1.15716,3.053214 4.3166022,4.3166022 0 0 0 5.94191,0 4.1911277,4.1911277 0 0 0 1.15715,-3.053214 4.3601,4.3601 0 0 0 -1.14321,-3.056001 z m 24.73521,5.2532 v 0.175664 a 8.6281854,8.6281854 0 0 1 1.34397,1.316088 l 4.79313,7.165989 h -9.23492 l -3.50771,-7.073974 h -0.145 v 7.073974 h -7.8324 V 29.774971 h 9.6727 q 4.06119,0 6.45775,1.753855 2.71862,1.98668 2.71862,5.905667 0,2.430023 -0.97871,3.700104 -0.98288,1.275658 -3.28743,2.032688 z m -4.32747,-7.037727 c -0.38758,-0.2147 -0.99265,-0.320657 -1.80963,-0.320657 h -0.61343 v 3.741929 h 0.55488 q 2.6266,0 2.6266,-1.840293 c 0,-0.783518 -0.25374,-1.307723 -0.75842,-1.580979 z"
           data-name="Path 431"
           id="Path_431"
           inkscape:connector-curvature="0"
           style="fill:#ffffff;stroke-width:0.27883226" />
        <path
           d="m 330.19269,32.407148 q -3.36272,-2.630783 -9.29906,-2.632177 H 312.735 v 22.050055 h 10.14671 q 4.91442,0 7.99691,-2.92495 3.08667,-2.923556 3.08667,-7.77942 0,-5.788558 -3.7726,-8.713508 z m -5.5878,11.836429 q -1.25474,0.966154 -3.35435,0.96476 h -0.49632 v -8.535056 h 0.49632 q 4.69693,0 4.69554,4.413915 0,2.074512 -1.34119,3.156381 z"
           data-name="Path 432"
           id="Path_432"
           inkscape:connector-curvature="0"
           style="fill:#ffffff;stroke-width:0.27883226" />
      </g>
    </g>
  </g>
</svg>
