<?xml version="1.0" standalone="no"?>
<!DOCTYPE svg PUBLIC "-//W3C//DTD SVG 20010904//EN"
 "http://www.w3.org/TR/2001/REC-SVG-20010904/DTD/svg10.dtd">
<svg version="1.0" xmlns="http://www.w3.org/2000/svg"
 width="1024.000000pt" height="1024.000000pt" viewBox="0 0 1024.000000 1024.000000"
 preserveAspectRatio="xMidYMid meet">
<metadata>
Created by potrace 1.14, written by Peter Selinger 2001-2017
</metadata>
<g transform="translate(0.000000,1024.000000) scale(0.100000,-0.100000)"
fill="#000000" stroke="none">
<path d="M2428 8402 l-68 -3 0 -3330 0 -3330 1343 4 c738 2 1353 6 1367 9 14
4 50 9 80 12 64 7 129 16 150 20 8 1 38 6 65 11 40 6 184 36 285 60 229 53
623 215 825 338 59 36 247 160 258 170 6 7 30 25 52 41 194 144 457 421 604
639 106 158 205 339 291 532 106 236 218 662 245 930 4 33 8 71 11 85 25 144
25 788 -1 945 -3 17 -7 50 -10 75 -7 64 -15 121 -20 150 -3 14 -8 41 -11 60
-82 502 -332 1076 -625 1435 -118 144 -251 283 -370 386 -107 94 -348 269
-369 269 -4 0 -10 4 -12 8 -4 10 -155 94 -278 154 -224 109 -535 212 -770 254
-14 3 -32 7 -40 9 -8 3 -33 7 -55 10 -22 3 -51 8 -65 10 -130 24 -280 36 -525
41 -265 6 -2243 11 -2357 6z"/>
</g>
</svg>
